<svg width="95" height="95" viewBox="0 0 95 95" fill="none" xmlns="http://www.w3.org/2000/svg">
<path d="M46.9997 75.1042C45.831 75.1042 44.8833 76.0525 44.8833 77.2214C44.8833 78.3906 45.831 79.3386 46.9997 79.3386C48.1692 79.3386 49.1169 78.3906 49.1169 77.2214C49.1169 76.0525 48.1694 75.1042 46.9997 75.1042Z" fill="url(#paint0_linear_2_1433)"/>
<path d="M85.1943 67H9.70234C4.34375 67 0 71.3094 0 76.668C0 82.0266 4.34375 86.3359 9.70234 86.3359H85.1945C90.5527 86.3359 94.8969 82.0266 94.8969 76.668C94.8969 71.3094 90.5525 67 85.1943 67ZM22.3309 81.698C19.5045 81.698 17.2135 79.4063 17.2135 76.5799C17.2135 73.7535 19.5045 71.4617 22.3309 71.4617C25.158 71.4617 27.449 73.7535 27.449 76.5799C27.449 79.4063 25.1578 81.698 22.3309 81.698ZM47.4479 81.698C44.6215 81.698 42.3305 79.4063 42.3305 76.5799C42.3305 73.7535 44.6215 71.4617 47.4479 71.4617C50.275 71.4617 52.566 73.7535 52.566 76.5799C52.566 79.4063 50.275 81.698 47.4479 81.698ZM72.5654 81.698C69.7387 81.698 67.4477 79.4063 67.4477 76.5799C67.4477 73.7535 69.7387 71.4617 72.5654 71.4617C75.3922 71.4617 77.6832 73.7535 77.6832 76.5799C77.6832 79.4063 75.3922 81.698 72.5654 81.698Z" fill="url(#paint1_linear_2_1433)"/>
<path d="M72.1172 79.3386C73.2865 79.3386 74.2344 78.3907 74.2344 77.2214C74.2344 76.0521 73.2865 75.1042 72.1172 75.1042C70.9479 75.1042 70 76.0521 70 77.2214C70 78.3907 70.9479 79.3386 72.1172 79.3386Z" fill="url(#paint2_linear_2_1433)"/>
<path d="M21.8828 79.3386C23.0521 79.3386 24 78.3907 24 77.2214C24 76.0521 23.0521 75.1042 21.8828 75.1042C20.7135 75.1042 19.7656 76.0521 19.7656 77.2214C19.7656 78.3907 20.7135 79.3386 21.8828 79.3386Z" fill="url(#paint3_linear_2_1433)"/>
<path d="M56.3643 92.251H26.3883C25.7207 92.251 25.1797 92.8533 25.1797 93.5205C25.1797 94.1877 25.7207 94.79 26.3883 94.79H56.3643C57.0314 94.79 57.5729 94.1877 57.5729 93.5205C57.5729 92.8533 57.0314 92.251 56.3643 92.251Z" fill="url(#paint4_linear_2_1433)"/>
<path d="M67.5915 92.251H62.8468C62.1796 92.251 61.6382 92.8533 61.6382 93.5205C61.6382 94.1877 62.1794 94.79 62.8468 94.79H67.5915C68.2587 94.79 68.8001 94.1877 68.8001 93.5205C68.8001 92.8533 68.2587 92.251 67.5915 92.251Z" fill="url(#paint5_linear_2_1433)"/>
<path d="M77.8087 55.4151C79.2323 55.9374 79.9468 56.6518 80.4694 58.0751C80.6927 58.6835 81.5413 58.6835 81.7646 58.0751C82.2868 56.6518 83.0013 55.9374 84.4253 55.4151C85.0333 55.1915 85.0333 54.3424 84.4253 54.1192C83.0013 53.5969 82.2868 52.8825 81.7646 51.4584C81.5413 50.8504 80.6927 50.8504 80.4694 51.4584C79.9468 52.8825 79.2323 53.5969 77.8087 54.1192C77.2005 54.3424 77.2005 55.1916 77.8087 55.4151Z" fill="url(#paint6_linear_2_1433)"/>
<path d="M13.4562 4.47979C14.8802 5.00205 15.5947 5.7165 16.1169 7.13975C16.3402 7.74814 17.1892 7.74814 17.4125 7.13975C17.9347 5.7165 18.6496 5.00205 20.0728 4.47979C20.6812 4.25615 20.6812 3.40713 20.0728 3.18389C18.6496 2.66162 17.9347 1.94717 17.4125 0.523145C17.1892 -0.0848633 16.3402 -0.0848633 16.1169 0.523145C15.5947 1.94717 14.8802 2.66162 13.4562 3.18389C12.8486 3.40713 12.8486 4.25615 13.4562 4.47979Z" fill="url(#paint7_linear_2_1433)"/>
<path d="M20.8298 20.6883C21.4257 20.9844 22.1523 20.7576 22.4499 20.1604C27.0345 10.9334 36.2779 5.20938 46.5734 5.20606C49.5478 5.20684 52.4335 5.65957 55.1455 6.56289C55.3099 5.75605 55.5917 4.9332 55.9728 4.23047C53.0046 3.23477 49.8449 2.60254 46.5871 2.60254C46.583 2.60254 46.5775 2.60254 46.5734 2.60254C46.5689 2.60254 46.5638 2.60254 46.5597 2.60254C35.3457 2.60254 25.2794 8.95449 20.2853 19.0045C19.988 19.6025 20.2322 20.3912 20.8298 20.6883Z" fill="url(#paint8_linear_2_1433)"/>
<path d="M19.6146 23.9925C18.9703 23.83 18.31 24.2179 18.1449 24.865C17.541 27.232 17.2344 29.6814 17.2344 32.1457C17.2344 34.6103 17.541 37.0597 18.1453 39.4267C18.2846 39.973 18.776 40.3365 19.3148 40.3365C19.4141 40.3365 19.5143 40.324 19.615 40.298C20.2613 40.1332 20.652 39.4752 20.4867 38.8283C19.9324 36.6574 19.6514 34.409 19.6514 32.1457C19.6514 29.8828 19.9324 27.6343 20.4871 25.4623C20.6518 24.8158 20.2611 24.1578 19.6146 23.9925Z" fill="url(#paint9_linear_2_1433)"/>
<path d="M46.5596 61.3917C46.5612 61.3917 46.5627 61.3917 46.5641 61.3917C46.5694 61.3917 46.577 61.3917 46.5825 61.3917C46.584 61.3917 46.5856 61.3917 46.587 61.3917C57.8006 61.3917 67.8668 55.1887 72.8614 45.1385C73.1584 44.5411 72.9143 43.8411 72.3166 43.544C71.7196 43.2471 70.9934 43.504 70.6965 44.1016C66.1116 53.3276 56.8682 59.0674 46.5731 59.071C36.2776 59.0674 27.0342 53.3379 22.4497 44.111C22.1522 43.5131 21.4254 43.271 20.8295 43.5684C20.2317 43.8653 19.9875 44.5399 20.2848 45.1378C25.2793 55.1881 35.3455 61.3917 46.5596 61.3917Z" fill="url(#paint10_linear_2_1433)"/>
<path d="M72.6597 25.4623C73.2144 27.6343 73.4955 29.8828 73.4955 32.1457C73.4955 34.4089 73.2144 36.6574 72.6601 38.8283C72.4949 39.4753 72.8855 40.1334 73.5318 40.298C73.6326 40.324 73.7328 40.3365 73.832 40.3365C74.3711 40.3365 74.8623 39.973 75.0015 39.4267C75.6058 37.0597 75.9125 34.6103 75.9125 32.1457C75.9125 29.6814 75.6058 27.232 75.0019 24.865C74.8371 24.2183 74.1787 23.8293 73.5322 23.9925C72.8857 24.1578 72.4951 24.8158 72.6597 25.4623Z" fill="url(#paint11_linear_2_1433)"/>
<path d="M63.2373 16.5166C64.8299 16.5166 66.3115 16.058 67.573 15.2768C68.7682 16.7721 69.8184 18.4102 70.6965 20.1775C70.9078 20.6025 71.3357 20.8486 71.7799 20.8486C71.9607 20.8486 72.1441 20.8082 72.3166 20.7221C72.9145 20.4252 73.1586 19.6998 72.8613 19.1023C71.8959 17.1584 70.7385 15.3594 69.4217 13.718C70.7084 12.2619 71.4953 10.3545 71.4953 8.2584C71.4953 3.69746 67.7977 0 63.2373 0C58.676 0 54.9785 3.69766 54.9785 8.2584C54.9785 12.8193 58.6762 16.5166 63.2373 16.5166ZM60.0193 6.89941H61.7896V5.04004C61.7896 4.37285 62.4896 3.83145 63.1568 3.83145C63.824 3.83145 64.524 4.37266 64.524 5.04004V6.89941H66.4547C67.1219 6.89941 67.6633 7.59941 67.6633 8.2666C67.6633 8.93379 67.1221 9.63379 66.4547 9.63379H64.524V11.4754C64.524 12.143 63.824 12.684 63.1568 12.684C62.4896 12.684 61.7896 12.143 61.7896 11.4754V9.63379H60.0193C59.3521 9.63379 58.8107 8.93379 58.8107 8.2666C58.8107 7.59941 59.3521 6.89941 60.0193 6.89941Z" fill="url(#paint12_linear_2_1433)"/>
<path d="M30.04 28.3264L44.8602 48.8061C45.1504 49.2055 45.5666 49.4908 46.0332 49.6125C46.2053 49.6549 46.3815 49.6816 46.5627 49.6816C46.7436 49.6816 46.9197 49.657 47.0922 49.615C47.5588 49.493 47.9791 49.2123 48.2648 48.8127L63.0891 28.3396C63.1563 28.2432 63.2066 28.1338 63.2275 28.0201C63.2783 27.802 63.2363 27.5703 63.11 27.3813L59.4994 21.8305C59.3441 21.5951 59.0795 21.3525 58.7979 21.3525H50.4926H42.6533H34.3484C34.0666 21.3525 33.8018 21.5953 33.6465 21.8307L30.158 27.1508L30.0359 27.3428C29.9098 27.532 29.8678 27.6025 29.9184 27.9932H29.8975C29.9184 27.9932 29.9691 28.2295 30.04 28.3264ZM55.8809 26.626H58.5012C59.1688 26.626 59.7098 27.1307 59.7098 27.7979C59.7098 28.465 59.1688 28.9697 58.5012 28.9697H55.8809C55.2137 28.9697 54.6723 28.465 54.6723 27.7979C54.6723 27.1307 55.2137 26.626 55.8809 26.626ZM34.7459 26.626H49.9758C50.6434 26.626 51.1844 27.1307 51.1844 27.7979C51.1844 28.465 50.6434 28.9697 49.9758 28.9697H34.7459C34.0787 28.9697 33.5373 28.465 33.5373 27.7979C33.5373 27.1307 34.0787 26.626 34.7459 26.626Z" fill="url(#paint13_linear_2_1433)"/>
<defs>
<linearGradient id="paint0_linear_2_1433" x1="43.5225" y1="75.1042" x2="49.7595" y2="76.0491" gradientUnits="userSpaceOnUse">
<stop stop-color="#FFAC30"/>
<stop offset="1" stop-color="#FD01A7"/>
</linearGradient>
<linearGradient id="paint1_linear_2_1433" x1="-30.5026" y1="67" x2="61.5886" y2="135.479" gradientUnits="userSpaceOnUse">
<stop stop-color="#FFAC30"/>
<stop offset="1" stop-color="#FD01A7"/>
</linearGradient>
<linearGradient id="paint2_linear_2_1433" x1="68.6389" y1="75.1042" x2="74.8771" y2="76.0494" gradientUnits="userSpaceOnUse">
<stop stop-color="#FFAC30"/>
<stop offset="1" stop-color="#FD01A7"/>
</linearGradient>
<linearGradient id="paint3_linear_2_1433" x1="18.4046" y1="75.1042" x2="24.6427" y2="76.0494" gradientUnits="userSpaceOnUse">
<stop stop-color="#FFAC30"/>
<stop offset="1" stop-color="#FD01A7"/>
</linearGradient>
<linearGradient id="paint4_linear_2_1433" x1="14.7676" y1="92.251" x2="25.0742" y2="112.174" gradientUnits="userSpaceOnUse">
<stop stop-color="#FFAC30"/>
<stop offset="1" stop-color="#FD01A7"/>
</linearGradient>
<linearGradient id="paint5_linear_2_1433" x1="59.3361" y1="92.251" x2="68.4625" y2="96.1514" gradientUnits="userSpaceOnUse">
<stop stop-color="#FFAC30"/>
<stop offset="1" stop-color="#FD01A7"/>
</linearGradient>
<linearGradient id="paint6_linear_2_1433" x1="74.9326" y1="51.0024" x2="86.0241" y2="52.6829" gradientUnits="userSpaceOnUse">
<stop stop-color="#FFAC30"/>
<stop offset="1" stop-color="#FD01A7"/>
</linearGradient>
<linearGradient id="paint7_linear_2_1433" x1="10.5806" y1="0.0671389" x2="21.6719" y2="1.74757" gradientUnits="userSpaceOnUse">
<stop stop-color="#FFAC30"/>
<stop offset="1" stop-color="#FD01A7"/>
</linearGradient>
<linearGradient id="paint8_linear_2_1433" x1="8.64701" y1="2.60254" x2="58.2206" y2="17.3707" gradientUnits="userSpaceOnUse">
<stop stop-color="#FFAC30"/>
<stop offset="1" stop-color="#FD01A7"/>
</linearGradient>
<linearGradient id="paint9_linear_2_1433" x1="16.1767" y1="23.9556" x2="21.1309" y2="24.1063" gradientUnits="userSpaceOnUse">
<stop stop-color="#FFAC30"/>
<stop offset="1" stop-color="#FD01A7"/>
</linearGradient>
<linearGradient id="paint10_linear_2_1433" x1="3.17724" y1="43.4202" x2="69.6137" y2="73.0109" gradientUnits="userSpaceOnUse">
<stop stop-color="#FFAC30"/>
<stop offset="1" stop-color="#FD01A7"/>
</linearGradient>
<linearGradient id="paint11_linear_2_1433" x1="71.5644" y1="23.9553" x2="76.5186" y2="24.1061" gradientUnits="userSpaceOnUse">
<stop stop-color="#FFAC30"/>
<stop offset="1" stop-color="#FD01A7"/>
</linearGradient>
<linearGradient id="paint12_linear_2_1433" x1="49.1898" y1="6.84294e-07" x2="75.8735" y2="3.4924" gradientUnits="userSpaceOnUse">
<stop stop-color="#FFAC30"/>
<stop offset="1" stop-color="#FD01A7"/>
</linearGradient>
<linearGradient id="paint13_linear_2_1433" x1="19.1775" y1="21.3525" x2="67.8889" y2="30.0414" gradientUnits="userSpaceOnUse">
<stop stop-color="#FFAC30"/>
<stop offset="1" stop-color="#FD01A7"/>
</linearGradient>
</defs>
</svg>
