<?xml version="1.0" standalone="no"?>
<!DOCTYPE svg PUBLIC "-//W3C//DTD SVG 20010904//EN"
 "http://www.w3.org/TR/2001/REC-SVG-20010904/DTD/svg10.dtd">
<svg version="1.0" xmlns="http://www.w3.org/2000/svg"
 width="75.000000pt" height="75.000000pt" viewBox="0 0 75.000000 75.000000"
 preserveAspectRatio="xMidYMid meet">
<metadata>
Created by potrace 1.14, written by Peter Selinger 2001-2017
</metadata>
<g transform="translate(0.000000,75.000000) scale(0.100000,-0.100000)"
fill="#000000" stroke="none">
<path d="M343 647 c-17 -56 -37 -120 -43 -143 l-12 -41 -130 1 c-71 1 -134 -1
-139 -4 -5 -4 39 -41 96 -84 58 -43 108 -82 111 -87 3 -5 -13 -68 -36 -140
-23 -72 -40 -133 -37 -135 2 -3 53 33 113 79 l109 84 109 -83 c61 -46 112 -82
114 -80 2 3 -15 63 -37 134 -23 72 -41 132 -41 135 0 2 52 44 115 93 64 48
114 92 111 98 -2 6 -23 59 -46 118 -36 93 -45 108 -68 113 -49 10 -77 15 -112
21 -19 2 -46 7 -60 9 -14 3 -39 7 -55 10 l-31 5 -31 -103z"/>
</g>
</svg>
